<svg width="24" height="24" viewBox="0 0 24 24" fill="none" xmlns="http://www.w3.org/2000/svg">
<path d="M15.9661 2.39417H8.01005L2.39404 8.02217V15.9782L8.02205 21.6062H15.9781L21.6061 15.9782V8.02217L15.9661 2.39417ZM15.222 4.19417L19.794 8.76617V11.0942H16.23V8.16617L13.95 4.19417H15.222ZM14.43 8.64617V11.0942H9.57006V8.64617L12.0061 4.41017L14.4421 8.64617H14.43ZM8.76606 4.19417H10.0381L7.75804 8.16617V11.0942H4.19404V8.76617L8.76606 4.19417ZM8.76606 19.7942L4.19404 15.2222V12.8942H7.75804V15.8222L10.0381 19.7942H8.76606ZM9.55804 15.3422V12.8942H14.418V15.3422L11.982 19.5782L9.54605 15.3422H9.55804ZM15.222 19.7942H13.95L16.23 15.8222V12.8942H19.794V15.2222L15.222 19.7942Z" fill="#255A4B"/>
</svg>
