<svg width="20" height="20" viewBox="0 0 20 20" fill="none" xmlns="http://www.w3.org/2000/svg">
<path d="M13.305 1.995H6.675L1.995 6.685V13.315L6.685 18.005H13.315L18.005 13.315V6.685L13.305 1.995ZM12.685 3.495L16.495 7.305V9.245H13.525V6.805L11.625 3.495H12.685ZM12.025 7.205V9.245H7.97501V7.205L10.005 3.675L12.035 7.205H12.025ZM7.30501 3.495H8.36501L6.465 6.805V9.245H3.495V7.305L7.30501 3.495ZM7.30501 16.495L3.495 12.685V10.745H6.465V13.185L8.36501 16.495H7.30501ZM7.965 12.785V10.745H12.015V12.785L9.985 16.315L7.955 12.785H7.965ZM12.685 16.495H11.625L13.525 13.185V10.745H16.495V12.685L12.685 16.495Z" fill="white"/>
</svg>
