<svg width="20" height="20" viewBox="0 0 20 20" fill="none" xmlns="http://www.w3.org/2000/svg">
<path d="M2.74023 3.61036V5.70898H4.83886C4.99941 5.54843 5.07968 5.46816 5.24023 5.30761V3.20898H3.14161L2.74023 3.61036Z" fill="white"/>
<path d="M8.60986 3.61036V5.70898H10.7085L11.1099 5.30761V3.20898H9.01124C8.85069 3.36953 8.77041 3.44981 8.60986 3.61036Z" fill="white"/>
<path d="M14.9014 3.20898L14.5 3.61036V5.70898H16.5986L17 5.30761V3.20898H14.9014Z" fill="white"/>
<path d="M2.74023 9.46973V11.5684H4.83886L5.24023 11.167V9.06836H3.14161C2.98106 9.22891 2.90078 9.30918 2.74023 9.46973Z" fill="white"/>
<path d="M8.60986 9.46973V11.5684H10.7085C10.869 11.4078 10.9493 11.3275 11.1099 11.167V9.06836H9.01124L8.60986 9.46973Z" fill="white"/>
<path d="M14.5 9.46973V11.5684H16.5986C16.7592 11.4078 16.8394 11.3275 17 11.167V9.06836H14.9014L14.5 9.46973Z" fill="white"/>
<path d="M2.74023 15.4287V17.5273H4.83886L5.24023 17.126V15.0273H3.14161L2.74023 15.4287Z" fill="white"/>
<path d="M8.60986 15.4287V17.5273H10.7085L11.1099 17.126V15.0273H9.01124C8.85069 15.1879 8.77041 15.2682 8.60986 15.4287Z" fill="white"/>
<path d="M14.5 15.4287V17.5273H16.5986L17 17.126V15.0273H14.9014L14.5 15.4287Z" fill="white"/>
</svg>
