<svg width="735" height="160" viewBox="0 0 735 160" fill="none" xmlns="http://www.w3.org/2000/svg">
<path d="M39.0851 102.398V119.33L36.1268 121.838L0 121.928V104.906L3.04792 102.398H39.0851Z" fill="white"/>
<path d="M75.659 38.1633V55.0951H114.744L117.702 52.5867V35.6549L78.6173 35.7445L75.659 38.1633Z" fill="white"/>
<path d="M85.0754 20.4257L84.9857 1.88131L80.8621 0L55.3133 23.382V41.4784L59.6163 43.3597L85.0754 20.4257Z" fill="white"/>
<path d="M48.4987 22.5769V2.41998L43.5683 1.34494L29.1355 27.4145L28.7769 47.3923L33.7073 48.4673L48.4987 22.5769Z" fill="white"/>
<path d="M30.57 137.606L30.6596 156.06L34.7833 157.942L60.5113 135.456V117.359L56.298 115.388L30.57 137.606Z" fill="white"/>
<path d="M69.8364 136.618V158.835L74.7668 160L88.8411 133.214V112.251L83.8209 111.176L69.8364 136.618Z" fill="white"/>
<path d="M58.538 61.8148V79.4633L4.30295 40.4037L0 42.285V60.919L54.9522 100.426L59.1655 98.6348V80.9863L113.49 120.046L117.704 118.165V99.5306L62.7513 59.9335L58.538 61.8148Z" fill="white"/>
<path d="M217.032 70.1467L183.953 66.4736C170.775 64.8611 168.265 61.9943 168.176 57.3358C168.176 50.3481 178.395 46.4063 196.862 46.4063C211.116 46.4063 227.61 48.9147 227.61 60.7401V62.2631H251.366V60.7401C251.366 41.2103 231.644 30.012 197.131 30.012C162.618 30.012 144.778 40.2249 144.778 58.6796C144.778 74.8052 154.819 81.972 179.292 85.018L211.653 88.4223C226.893 90.3036 229.762 93.1703 229.762 98.2767C229.762 105.892 219.99 109.565 199.91 109.565C177.32 109.565 166.293 105.175 166.293 94.4245V92.9016H142.717V94.4245C142.717 116.552 161.99 126.138 197.938 126.138C233.885 126.138 252.352 115.567 252.352 96.3058C252.352 80.2699 242.76 73.1926 217.032 70.0571V70.1467Z" fill="white"/>
<path d="M283.01 58.7682H262.123V124.256H283.01V58.7682Z" fill="white"/>
<path d="M406.45 56.7988C392.555 56.7988 380.094 62.174 371.757 70.7742C367.634 61.9052 358.848 56.4404 345.939 56.7988C333.479 57.1571 321.825 62.5323 316.267 69.4304V58.7697H294.573V124.257H316.267V95.5896C316.267 81.6142 324.066 72.566 338.858 72.566C348.45 72.566 354.725 79.3745 354.725 91.1103V124.257H376.419V95.5896C376.419 81.6142 384.935 72.566 399.816 72.566C410.215 72.566 415.325 79.1953 415.325 91.1999V124.257H437.019V88.3331C437.019 67.9075 427.337 56.7092 406.36 56.7092L406.45 56.7988Z" fill="white"/>
<path d="M503.625 56.7982C486.682 56.7982 473.504 62.4421 468.394 67.5485V58.7691H447.059V150.505C447.866 151.043 448.135 151.222 448.852 151.76L468.574 144.055V115.477C474.311 121.659 486.682 126.228 503.625 126.228C529.801 126.228 542.62 112.61 542.62 91.4681C542.62 70.3257 530.249 56.7982 503.625 56.7982ZM494.75 110.729C476.821 110.729 468.842 100.964 468.842 91.3785C468.842 81.7928 477.359 72.207 494.75 72.207C512.141 72.207 520.478 78.2093 520.478 91.3785C520.478 103.652 511.603 110.729 494.75 110.729Z" fill="white"/>
<path d="M637.018 109.206C632.357 109.206 631.729 108.669 631.729 104.279V80.1802C631.729 63.2484 620.792 56.7982 592.644 56.7982C564.496 56.7982 552.035 63.6068 550.332 80.1802V81.3448H572.115V80.449C573.46 74.3571 577.315 70.5945 592.554 70.5945C607.794 70.5945 609.766 74.1779 609.856 78.0301C609.856 82.4199 608.959 83.047 592.644 84.4803L588.072 84.9283C563.061 86.8992 548.091 91.1993 548.091 107.056C548.091 119.509 560.103 126.317 581.08 126.317C596.319 126.317 605.911 123.002 611.38 116.642C612.097 122.913 616.938 124.794 622.675 124.794C628.95 124.794 638.632 124.794 638.632 124.794V109.296H637.018V109.206ZM610.214 98.187C610.214 109.385 597.395 112.969 585.114 112.969C575.074 112.969 570.322 110.908 570.233 105.981C570.233 101.233 572.653 98.9933 589.686 97.112C601.519 95.8578 606.36 95.0515 610.214 93.7077V98.187Z" fill="white"/>
<path d="M689.55 109.207C673.504 109.207 664.27 102.398 664.27 90.4832C664.27 78.5682 673.414 71.8493 689.281 71.8493C703.535 71.8493 712.947 76.8661 712.947 85.3768H734.91C734.91 67.6387 718.685 56.7092 689.909 56.7092C661.133 56.7092 642.128 70.3263 642.128 90.4832C642.128 110.64 660.057 124.168 689.819 124.168C716.981 124.168 735 112.969 735 94.8729H713.127C713.127 103.204 702.818 109.117 689.46 109.117L689.55 109.207Z" fill="white"/>
<path d="M262.123 51.8715L264.454 53.4841L283.1 46.3172V33.5959H262.123V51.8715Z" fill="white"/>
</svg>
